<svg xmlns="http://www.w3.org/2000/svg" width="116.151" height="117.854" viewBox="0 0 116.151 117.854"><path d="M126.121,129.768a34.225,34.225,0,0,1-2.715,13.577,34.685,34.685,0,0,1-18.562,18.562,34.225,34.225,0,0,1-13.577,2.715,34.656,34.656,0,0,1-12.442-2.27,33.389,33.389,0,0,1-10.74-6.646,33.279,33.279,0,0,1-10.78,6.646,34.981,34.981,0,0,1-12.482,2.27,34.225,34.225,0,0,1-13.577-2.715,34.685,34.685,0,0,1-18.562-18.562A34.225,34.225,0,0,1,9.97,129.768v-83H33.232v83a11.825,11.825,0,0,0,.892,4.58,11.363,11.363,0,0,0,6.16,6.2,11.677,11.677,0,0,0,12.766-2.472,11.382,11.382,0,0,0,2.472-3.729,11.825,11.825,0,0,0,.892-4.58v-83H79.677v83a11.825,11.825,0,0,0,.892,4.58,11.363,11.363,0,0,0,6.16,6.2,11.677,11.677,0,0,0,12.766-2.472,11.93,11.93,0,0,0,2.513-3.729,11.379,11.379,0,0,0,.932-4.58v-83h23.182Z" transform="translate(-9.97 -46.768)" fill="#fff"/></svg>