<svg xmlns="http://www.w3.org/2000/svg" width="817.599" height="117.854" viewBox="0 0 817.599 117.854">
  <path id="Path_11" data-name="Path 11" d="M126.121,129.768a34.225,34.225,0,0,1-2.715,13.577,34.685,34.685,0,0,1-18.562,18.562,34.225,34.225,0,0,1-13.577,2.715,34.656,34.656,0,0,1-12.442-2.27,33.389,33.389,0,0,1-10.74-6.646,33.279,33.279,0,0,1-10.78,6.646,34.981,34.981,0,0,1-12.482,2.27,34.225,34.225,0,0,1-13.577-2.715,34.685,34.685,0,0,1-18.562-18.562A34.225,34.225,0,0,1,9.97,129.768v-83H33.232v83a11.825,11.825,0,0,0,.892,4.58,11.363,11.363,0,0,0,6.16,6.2,11.677,11.677,0,0,0,12.766-2.472,11.382,11.382,0,0,0,2.472-3.729,11.825,11.825,0,0,0,.892-4.58v-83H79.677v83a11.825,11.825,0,0,0,.892,4.58,11.363,11.363,0,0,0,6.16,6.2,11.677,11.677,0,0,0,12.766-2.472,11.93,11.93,0,0,0,2.513-3.729,11.379,11.379,0,0,0,.932-4.58v-83h23.182ZM170.134,163H146.871V46.768h23.263Zm104.561,0H184.724l49.605-92.97H184.724V46.768h89.971l-49.443,92.97h49.443Zm37.69,0H289.122V46.768h23.263Zm114.692-58.116a57.337,57.337,0,0,1-7.943,29.3,59.891,59.891,0,0,1-9.078,11.753A57.693,57.693,0,0,1,368.961,163H333.945V46.768h35.016A57.25,57.25,0,0,1,384.4,48.834a57.816,57.816,0,0,1,25.654,15,59.892,59.892,0,0,1,9.078,11.753,57.337,57.337,0,0,1,7.943,29.3Zm-23.263,0A33.934,33.934,0,0,0,401.1,91.348a35.038,35.038,0,0,0-7.457-11.064,35.477,35.477,0,0,0-11.1-7.5,33.79,33.79,0,0,0-13.577-2.756H357.37v69.707h11.591a34.225,34.225,0,0,0,13.577-2.715A34.685,34.685,0,0,0,401.1,118.46,34.225,34.225,0,0,0,403.814,104.884ZM522.154,163H442.478V46.768h79.677V70.03H465.74V93.293h38.177v23.263H465.74v23.182h56.414Zm84.7-46.444V93.293a22.7,22.7,0,0,0-1.824-9.038,23.221,23.221,0,0,0-12.4-12.4,23.305,23.305,0,0,0-18.075,0,23.221,23.221,0,0,0-12.4,12.4,22.7,22.7,0,0,0-1.824,9.038v23.263ZM630.119,163H606.856V139.737H560.331V163H537.149V93.293A45.311,45.311,0,0,1,540.8,75.177a47.313,47.313,0,0,1,9.929-14.792,46.483,46.483,0,0,1,14.752-9.97,46.811,46.811,0,0,1,36.231,0,46.656,46.656,0,0,1,24.762,24.762,45.311,45.311,0,0,1,3.647,18.116Zm101.562,0H650.3V46.768h23.263v92.97h58.116ZM734.6,81.621a33.5,33.5,0,0,1,2.756-13.536,35.416,35.416,0,0,1,18.562-18.562,33.5,33.5,0,0,1,13.536-2.756h53.334V70.03H769.452a11.491,11.491,0,0,0-11.591,11.591,11.825,11.825,0,0,0,.892,4.58,11.363,11.363,0,0,0,6.16,6.2,11.528,11.528,0,0,0,4.539.892h23.263a34.225,34.225,0,0,1,13.577,2.715,34.685,34.685,0,0,1,18.562,18.562,35.2,35.2,0,0,1,0,27.113,35.038,35.038,0,0,1-7.457,11.064,35.476,35.476,0,0,1-11.1,7.5A33.79,33.79,0,0,1,792.715,163H741.083V139.737h51.632a11.591,11.591,0,1,0,0-23.182H769.452a33.5,33.5,0,0,1-13.536-2.756,35.3,35.3,0,0,1-18.562-18.6A33.79,33.79,0,0,1,734.6,81.621Z" transform="translate(-9.97 -46.768)" fill="#c8102e"/>
</svg>
